<svg width="383" height="85" viewBox="0 0 383 85" fill="none" xmlns="http://www.w3.org/2000/svg">
<g clip-path="url(#clip0_22_282)">
<mask id="mask0_22_282" style="mask-type:luminance" maskUnits="userSpaceOnUse" x="0" y="11" width="63" height="63">
<path d="M63 11H0V74H63V11Z" fill="white"/>
</mask>
<g mask="url(#mask0_22_282)">
<path fill-rule="evenodd" clip-rule="evenodd" d="M15.75 11H0V42.5H15.75C7.05153 42.5 0 49.5516 0 58.25V74H31.5V58.25C31.5 66.9484 38.5516 74 47.25 74H63V42.5H47.25C55.9484 42.5 63 35.4485 63 26.75V11H31.5V26.75C31.5 18.0515 24.4485 11 15.75 11ZM31.5 42.5H15.75C24.4485 42.5 31.5 49.5516 31.5 58.25V42.5ZM31.5 42.5V26.75C31.5 35.4485 38.5516 42.5 47.25 42.5H31.5Z" fill="#175CD3"/>
</g>
</g>
<path d="M127.542 61.9576V71H122.416C120.422 71 118.856 70.7389 117.717 70.2168C116.625 69.6947 115.605 68.8403 114.655 67.6536C110.715 70.1693 106.159 71.4272 100.985 71.4272C96.1907 71.4272 91.9187 70.3355 88.1688 68.152C84.4189 65.9685 81.4997 62.9544 79.4112 59.1096C77.3227 55.2173 76.2784 50.8741 76.2784 46.08C76.2784 41.2859 77.3227 36.9664 79.4112 33.1216C81.4997 29.2293 84.4189 26.1915 88.1688 24.008C91.9187 21.8245 96.1907 20.7328 100.985 20.7328C105.779 20.7328 110.051 21.8245 113.801 24.008C117.551 26.1915 120.47 29.2293 122.558 33.1216C124.647 36.9664 125.691 41.2859 125.691 46.08C125.691 52.0133 124.125 57.1872 120.992 61.6016C121.467 61.8389 122.013 61.9576 122.63 61.9576H127.542ZM87.172 46.08C87.172 49.2128 87.7416 52.0133 88.8808 54.4816C90.02 56.9499 91.6339 58.896 93.7224 60.32C95.8109 61.6965 98.2317 62.3848 100.985 62.3848C103.833 62.3848 106.372 61.6016 108.603 60.0352L107.891 59.1808C107.322 58.4213 106.776 57.8755 106.254 57.5432C105.731 57.1635 105.091 56.9736 104.331 56.9736H99.7032V47.9312H105.114C107.013 47.9312 108.461 48.216 109.458 48.7856C110.454 49.3552 111.451 50.2808 112.448 51.5624L113.587 53.0576C114.347 50.9691 114.726 48.6432 114.726 46.08C114.726 42.9472 114.157 40.1467 113.018 37.6784C111.878 35.2101 110.265 33.2877 108.176 31.9112C106.087 30.4872 103.69 29.7752 100.985 29.7752C98.2317 29.7752 95.8109 30.4872 93.7224 31.9112C91.6339 33.2877 90.02 35.2101 88.8808 37.6784C87.7416 40.1467 87.172 42.9472 87.172 46.08ZM152.937 21.16C156.545 21.16 159.725 21.8483 162.478 23.2248C165.279 24.5539 167.439 26.4763 168.957 28.992C170.476 31.5077 171.236 34.4269 171.236 37.7496C171.236 40.9299 170.476 43.7541 168.957 46.2224C167.439 48.6432 165.35 50.4944 162.692 51.776L172.517 71H160.698L152.368 54.268H143.325V71H132.645V21.16H152.937ZM143.325 45.368H152.083C154.599 45.368 156.592 44.6797 158.064 43.3032C159.583 41.9267 160.342 40.0755 160.342 37.7496C160.342 35.3763 159.583 33.5013 158.064 32.1248C156.592 30.7483 154.599 30.06 152.083 30.06H143.325V45.368ZM173.049 21.16H212.494V30.3448H198.112V71H187.432V30.3448H173.049V21.16ZM236.681 34.4032V43.5168H232.694C229.846 43.5168 227.758 44.3712 226.429 46.08C225.1 47.7888 224.435 50.1147 224.435 53.0576V71H214.396V34.4032H223.509L224.435 39.8856C225.527 38.0819 226.88 36.7291 228.493 35.8272C230.107 34.8779 232.267 34.4032 234.973 34.4032H236.681ZM276.15 62.5272V71H271.023C266.419 71 264.164 69.0064 264.259 65.0192C262.93 67.1077 261.293 68.6979 259.346 69.7896C257.4 70.8813 255.051 71.4272 252.298 71.4272C248.215 71.4272 244.917 70.5016 242.401 68.6504C239.933 66.7517 238.698 64.0936 238.698 60.676C238.698 56.7837 240.122 53.7933 242.97 51.7048C245.866 49.5688 250.043 48.5008 255.502 48.5008H262.764V46.7208C262.764 45.0595 262.147 43.7541 260.913 42.8048C259.679 41.808 258.017 41.3096 255.929 41.3096C254.078 41.3096 252.559 41.7131 251.372 42.52C250.185 43.3269 249.473 44.4187 249.236 45.7952H239.553C239.885 42.0453 241.546 39.1499 244.537 37.1088C247.527 35.0203 251.491 33.976 256.427 33.976C261.601 33.976 265.588 35.1152 268.389 37.3936C271.237 39.672 272.661 42.9709 272.661 47.2904V60.1776C272.661 61.0795 272.851 61.6965 273.23 62.0288C273.61 62.3611 274.203 62.5272 275.01 62.5272H276.15ZM262.764 55.1936H255.43C253.342 55.1936 251.704 55.6208 250.518 56.4752C249.378 57.2821 248.809 58.4451 248.809 59.964C248.809 61.2456 249.283 62.2661 250.233 63.0256C251.23 63.7851 252.559 64.1648 254.22 64.1648C256.831 64.1648 258.895 63.4291 260.414 61.9576C261.933 60.4387 262.717 58.4213 262.764 55.9056V55.1936ZM282.383 34.4032V31.1992C282.383 27.9715 283.309 25.5032 285.16 23.7944C287.011 22.0381 289.764 21.16 293.419 21.16H301.607V29.704H295.413C294.368 29.704 293.609 29.9413 293.134 30.416C292.659 30.8907 292.422 31.6501 292.422 32.6944V34.4032H301.607V42.876H292.422V71H282.383V42.876H276.331V34.4032H282.383ZM305.343 31.1992C305.343 27.9715 306.268 25.5032 308.119 23.7944C309.971 22.0381 312.724 21.16 316.379 21.16H324.567V29.704H318.372C316.379 29.704 315.382 30.7008 315.382 32.6944V34.4032H324.567V42.876H315.382V71H305.343V31.1992ZM333.343 19.1664C335.005 19.1664 336.381 19.7123 337.473 20.804C338.565 21.8483 339.11 23.1773 339.11 24.7912C339.11 26.4051 338.565 27.7579 337.473 28.8496C336.381 29.9413 335.005 30.4872 333.343 30.4872C331.682 30.4872 330.282 29.9413 329.142 28.8496C328.051 27.7579 327.505 26.4051 327.505 24.7912C327.505 23.1773 328.051 21.8483 329.142 20.804C330.282 19.7123 331.682 19.1664 333.343 19.1664ZM328.288 34.4032H338.327V71H328.288V34.4032ZM380.496 57.116C379.831 61.5779 377.933 65.0904 374.8 67.6536C371.715 70.1693 367.704 71.4272 362.767 71.4272C358.97 71.4272 355.647 70.6677 352.799 69.1488C349.951 67.5824 347.744 65.3752 346.178 62.5272C344.659 59.6792 343.899 56.404 343.899 52.7016C343.899 48.9517 344.659 45.6765 346.178 42.876C347.744 40.028 349.951 37.8445 352.799 36.3256C355.695 34.7592 359.041 33.976 362.838 33.976C367.727 33.976 371.715 35.2339 374.8 37.7496C377.885 40.2179 379.784 43.6592 380.496 48.0736H370.101C369.674 46.2699 368.819 44.8459 367.538 43.8016C366.256 42.7099 364.666 42.164 362.767 42.164C360.156 42.164 358.068 43.1371 356.502 45.0832C354.935 47.0293 354.152 49.5688 354.152 52.7016C354.152 55.8344 354.935 58.3739 356.502 60.32C358.068 62.2661 360.156 63.2392 362.767 63.2392C364.713 63.2392 366.327 62.6933 367.609 61.6016C368.938 60.5099 369.792 59.0147 370.172 57.116H380.496Z" fill="black"/>
<defs>
<clipPath id="clip0_22_282">
<rect width="63" height="63" fill="white" transform="translate(0 11)"/>
</clipPath>
</defs>
</svg>
